Lynda.com Joomla 2.5 Essential Training
=======================================

The newest joomla essential training! The safest until now joomla CMS! Small differences with the previous versions but worth a look! :)

   General 
	  Format : MPEG-4
      Format profile : Base Media / Version 2
      File size : 5.26 MiB
      Duration : 2mn 33s
      Overall bit rate mode : Variable
      Overall bit rate : 287 Kbps
      Encoded date : UTC 2012-03-31 05:05:57
      Tagged date : UTC 2012-03-31 05:05:57
      Writing library : Apple QuickTime
      Copyright : lynda.com
   Video
      Duration : 2mn 33s
      Source duration : 2mn 33s
      Bit rate : 171 Kbps
      Display aspect ratio : 16:9
      Frame rate : 15.000 fps
      Bit depth : 8 bits
      Scan type : Progressive
      Bits/(Pixel*Frame) : 0.022
      Stream size : 3.13 MiB (60%)
      Source stream size : 3.45 MiB (66%)
   Audio
      Duration : 2mn 33s
      Bit rate : 96.0 Kbps
      Maximum bit rate : 99.7 Kbps
      Stream size : 1.76 MiB (33%)
      Language : English

Training Modules
-----------------

00. Introduction
01. Installing Joomla!
02. A General Overview of Joomla!
03. Creating Categories
04. Creating Articles and Basic Formatting
05. Creating Menus for Your Site
06. Advanced Article Formatting
07. Setting Display Options
08. Using Modules
09. Using Components
10. Using Templates
11. Creating a Web Site with Multiple Languages
12. ACL Essentials
13. Extending Joomla! 2.5
14. Launching Your Site and Beyond
15. Conclusion